<svg xmlns="http://www.w3.org/2000/svg" width="23" height="272" viewBox="0 0 23 272"><g fill="#444"><path d="M11.47 12.65a22.29 22.29 0 011.87 1.58c0 .27-.28.36-.62.36h-5.9c-.53 3.27-2.09 5.64-5.62 7.49l-.31-.36a9.3 9.3 0 004.89-7.13H.41l-.19-.69h5.64a18.43 18.43 0 00.09-2V9.5h-4.7l-.19-.72H6v-4H.77l-.19-.72H6V.36l1.9.19c0 .34-.24.58-.84.67v2.84h3.24l1-1.23a20.51 20.51 0 011.8 1.56.54.54 0 01-.6.39H7v4h2.84l1-1.17s1.1.84 1.8 1.51c-.07.26-.29.38-.62.38H7v2.36a18.82 18.82 0 01-.12 2h3.57zm10.83-10c-.17.19-.53.24-1.08.24-.79 1.63-2.4 4.8-3.39 6.33 2.76 2.16 3.75 4.23 3.75 6.15 0 2.33-.89 3.34-3.24 3.48a.84.84 0 00-.34-.75 4.06 4.06 0 00-1.51-.29v-.41h2.42a1.25 1.25 0 00.67-.14c.56-.29.85-.89.85-2 0-1.9-.87-3.85-3.17-5.93.74-1.58 1.92-4.6 2.74-6.67h-4.9v18.89a1 1 0 01-.92.44H14V1.2l1.34.74H20l.84-.81zM20 29.23s1.2.94 2 1.63c-.07.27-.31.39-.65.39h-9.7v3.17h3.82l.7-.8 1.63 1.28a2 2 0 01-1 .48v10.53a1.32 1.32 0 01-.94.46h-.12v-1.49H6.48v1.25c0 .12-.38.36-.84.36h-.19V33.82l1.17.6h4v-3.17H.55l-.21-.7H19zm-.41 5.14l1.95.24c-.07.33-.29.57-.89.65v14.9c0 .19-.43.46-.84.46h-.22v-1.78H2.52v1.42c0 .19-.46.48-.86.48h-.2V34.37l1.92.24c-.07.33-.26.57-.86.65v12.86h17.11zm-13.15.77V39h4.13v-3.86zm0 9h4.13v-4.4H6.48zm5.18-9V39h4.06v-3.86zm4.06 9v-4.4h-4.02v4.42zM10.34 77C16 76.15 19 73.35 19 69c0-4.11-3.21-6.8-7.12-6.8h-.84a4.17 4.17 0 01.84 2.33 11.7 11.7 0 01-.72 3.65c-.96 2.82-3.74 7.47-5.95 7.47-1.49 0-3.07-2.35-3.07-5.21a8.87 8.87 0 013-6.46 9.94 9.94 0 016.76-2.52c4.64 0 8.33 3 8.33 7.8 0 3.74-2.23 7.74-9.79 8.38zm-.09-14.69a8.93 8.93 0 00-4.54 2.28 7.73 7.73 0 00-2.54 5.61c0 2.42 1.13 4.13 2.06 4.13 1.66 0 3.84-3.89 4.9-6.36a11 11 0 00.74-3.41 4.64 4.64 0 00-.62-2.21zM22.18 96.24c-.17.17-.48.22-1 .24a28.77 28.77 0 01-5.64 5.11l-.31-.24a36.6 36.6 0 004.34-5h-7.95v10.16c0 1-.29 1.72-2.45 1.94a1.19 1.19 0 00-.63-.82 9.65 9.65 0 00-2.66-.5v-.38s3.31.24 3.94.24.74-.15.74-.56V96.31H.34l-.22-.69H13a14 14 0 00-6.22-4.41l.17-.41A19.68 19.68 0 0111 92.33 46.7 46.7 0 0016.39 89H3l-.21-.7h14.15l1-.89 1.59 1.52c-.19.16-.51.19-1.08.21a41.2 41.2 0 01-6.91 3.48c2.3 1.37 2.59 2.71 2.11 3h6.05l.92-.89zM20.06 123.46s1.18.93 1.93 1.6c-.08.27-.29.39-.63.39H.48l-.22-.7h10.32v-4.65H5a16.34 16.34 0 01-2.59 3.72l-.39-.24a23.11 23.11 0 003.34-7.92l1.92.55c-.07.29-.36.48-.84.48a21.58 21.58 0 01-1.08 2.69h5.18v-4l1.95.21c0 .34-.31.58-.89.67v3.08h5.47l1-1.28s1.16.92 1.9 1.61c-.05.27-.29.39-.62.39h-7.71v4.65H19zm-2.76 4l1.64 1.25a2 2 0 01-1.06.48v7.47c0 .14-.55.45-.91.45h-.15v-1.6H5.38v1.29a1.11 1.11 0 01-.87.39h-.19v-9.56l1.18.6h11.08zm-.48 7.33V129H5.38v5.84zM17.47 151.25a4.5 4.5 0 011.49.65 2.46 2.46 0 011.04 1.58c0 .36-.07.46-.89.7a47.48 47.48 0 00-7 2.93v3.91c0 .46-.19.72-.53.72s-.58-.19-.58-.74.12-2 .12-3.34c-2.35 1.42-4.06 3-4.06 4.39s1.73 2 4 2c3.46 0 4.83-.72 6-.72.69 0 .89.26.89.52s-.05.51-.77.7a27.45 27.45 0 01-5.26.62c-4.27 0-5.71-1.24-5.71-3s2-3.62 4.9-5.47c-.12-2-.6-2.78-1.9-2.78s-2.95 1.17-4 2.23c-.82.81-1.49 1.8-1.9 1.8a.64.64 0 01-.67-.67c0-.6.89-1.23 2-2.4a26.18 26.18 0 003.41-4.37c-.6.05-1.15.09-1.68.09-2 0-2.33-.24-3.36-2.13l.53-.31c1 1.1 1.25 1.53 3.05 1.53a12.26 12.26 0 002-.21 8.08 8.08 0 00.84-2.24c.12-.43 0-.55-.43-.72a6.92 6.92 0 00-1.3-.24v-.48a6 6 0 011.2-.14c.6 0 2 .43 2 .91s-.21.46-.45 1c-.2.36-.48 1-.8 1.64a28.38 28.38 0 003.39-1.13c1.08-.46 1.22-.65 1.61-.65s.81.17.81.48-.24.41-.6.6a27.15 27.15 0 01-5.78 1.78 22.66 22.66 0 01-2.4 3.5c-.1.12 0 .22.14.17a5.9 5.9 0 012.59-.82c1.47 0 2.38 1.08 2.6 3 2-1.13 4.51-2.14 6.09-2.93.39-.19.43-.38.1-.77a3.09 3.09 0 00-1.15-.77zM16.15 177.89a9.87 9.87 0 014.85 3.29 2.65 2.65 0 01.57 1.58c0 .6-.33.89-.74.89s-.7-.29-1-1a10.31 10.31 0 00-4-4.36zM6.5 211.32V216a1 1 0 01-.91.4h-.14v-5.11h-5l-.2-.72h5.2v-2.74H2.88v.77c0 .12-.46.36-.89.36H1.8v-8.83l1.2.6h2.45v-2.45h-5l-.2-.69h5.2v-3l1.85.2c0 .31-.27.52-.8.62v2.14h3l.94-1.18s1.08.86 1.75 1.49c-.07.26-.29.38-.62.38H6.5v2.45h2.43l.69-.79 1.64 1.25a1.83 1.83 0 01-1 .48v6.67c0 .14-.57.45-.91.45h-.18v-1H6.5v2.74h2.91l.86-1.08s1 .82 1.68 1.42c-.07.26-.29.38-.62.38zm-3.62-9.86V204h6.29v-2.52zm0 5.71h6.29v-2.5H2.88zM21.94 197a2 2 0 01-1.23.52v17c0 1-.16 1.66-2 1.87a1 1 0 00-.53-.79 5.66 5.66 0 00-2.06-.46v-.4s2.52.21 3 .21.62-.14.62-.57v-6.92h-5.63c-.36 3.39-1.51 6.63-4.92 9l-.36-.31c3.72-3.1 4.39-7.13 4.39-11.81v-8.43l1.3.65h4.92l.65-.86zm-2.24 9.72v-4.56h-5.44v2.06c0 .84 0 1.66-.08 2.5zm-5.44-9.51v4.23h5.44v-4.23zM9.41 225.38a4.49 4.49 0 011.44-.28c.86 0 2.25.67 2.25 1.17s-.28.67-.38 1.27-.17 1-.24 1.61a33 33 0 004-.89 5.89 5.89 0 011.29-.45c.53 0 1 .26 1 .6s-.31.45-.67.6a36.33 36.33 0 01-5.69 1.17c0 .72-.07 1.61-.07 2.72v.93a22.12 22.12 0 003.72-.77 7.8 7.8 0 011.47-.52c.31 0 .84.24.84.64 0 .22-.22.44-.6.6a26.78 26.78 0 01-5.38 1.06c.07 1.66.22 3.07.34 4.22a12.77 12.77 0 015.76 2.62 1.54 1.54 0 01.6 1.06.46.46 0 01-.46.5c-.38 0-.65-.24-1-.6a11.4 11.4 0 00-4.82-2.54c0 .33.05.65.05.93 0 2-1.66 3.15-4.2 3.15-2.16 0-3.8-1.06-3.8-2.57 0-1.83 2.45-2.79 5.28-2.79a11.79 11.79 0 011.61.1c0-.94-.12-2.3-.17-4-1 .09-2 .14-3 .14-3.34 0-4.85-1.39-2.5-4l.55.31c-1.7 2.09-.55 2.67 2 2.67.93 0 2-.08 2.95-.17V233c0-.91 0-1.87.05-2.76a31.05 31.05 0 01-3.84.27 5.14 5.14 0 01-4.66-2.21l.37-.3a5.28 5.28 0 004.2 1.61 28.24 28.24 0 003.89-.31c0-1.32.07-2.36.07-2.5 0-.48-.07-.58-.45-.67a9.27 9.27 0 00-1.73-.19zm2.33 14.5a11.72 11.72 0 00-2.07-.19c-2.45 0-4 .89-4 1.85s.84 1.61 2.52 1.61c3.09 0 3.52-1.01 3.55-3.27zM1.15 257.74a2 2 0 001.47 1.17c1.15 0 6.09-1.53 9.88-2.4a28.8 28.8 0 015.19-.86 4.61 4.61 0 011.56.21c.48.22.57.41.57.63s-.21.45-.62.45-1.08-.07-2-.07a9 9 0 00-4 .84c-1.15.67-3.62 2.93-3.62 7.87 0 2.52 1 3.63 2 4.28 1.58 1 3.72.86 4.8.86.46 0 1.2.26 1.2.72s-.46.58-1.51.58c-1.2 0-3.77 0-5.43-1.37-1.39-1.11-2.08-2.43-2.08-5a9.91 9.91 0 013.28-7.92c.15-.12.12-.27-.14-.2a71 71 0 00-7.37 2.31 4 4 0 01-1.37.53 2.76 2.76 0 01-2.06-1.56 3.59 3.59 0 01-.17-.92zm14.33 2.59A9.87 9.87 0 0118 262a2 2 0 01.84 1.42c0 .36-.14.55-.45.55s-.58-.65-1.08-1.25a10.57 10.57 0 00-2.19-1.9zm2.06-1.59a9.63 9.63 0 012.52 1.47c.65.53.92.93.92 1.46 0 .36-.17.51-.46.51s-.6-.6-1.13-1.2a10.29 10.29 0 00-2.18-1.76z"/></g></svg>
