<svg xmlns="http://www.w3.org/2000/svg" width="272" height="23" viewBox="0 0 272 23">
  <title>logo</title>
  <g>
    <path d="M12.16,12.56A22.29,22.29,0,0,1,14,14.14c0,.27-.28.36-.62.36H7.5C7,17.77,5.42,20.14,1.89,22l-.31-.36A9.3,9.3,0,0,0,6.47,14.5H1.1l-.2-.69H6.54a16.16,16.16,0,0,0,.1-2V9.42H1.94l-.2-.72h4.9v-4H1.46L1.26,4H6.64V.27l1.9.19c0,.34-.24.58-.84.67V4h3.24l1-1.23A20.51,20.51,0,0,1,13.79,4.3a.54.54,0,0,1-.6.39H7.7v4h2.83l1-1.18s1.1.84,1.8,1.51c-.07.27-.29.39-.62.39h-5v2.35a18.82,18.82,0,0,1-.12,2h3.57ZM23,2.6c-.17.19-.53.24-1.08.24-.8,1.63-2.4,4.8-3.39,6.34,2.76,2.16,3.75,4.22,3.75,6.14,0,2.33-.89,3.34-3.24,3.48a.84.84,0,0,0-.34-.79,4.06,4.06,0,0,0-1.51-.29v-.41H19.6a1.25,1.25,0,0,0,.67-.14c.56-.29.84-.89.84-2,0-1.9-.86-3.84-3.16-5.93.72-1.59,1.92-4.61,2.71-6.68H15.79V21.46a1,1,0,0,1-.92.44h-.14V1.11l1.34.74h4.59L21.5,1Z" fill="#444"/>
    <path d="M49.53.34s1.2.94,2,1.63c-.07.27-.31.39-.65.39h-9.7V5.53H45l.7-.8L47.3,6a2,2,0,0,1-1,.48V17a1.32,1.32,0,0,1-.94.46h-.12V16H36v1.25c0,.12-.39.36-.84.36h-.19V4.93l1.17.6h4V2.36H30l-.22-.7H48.47Zm-.41,5.14,2,.24c-.08.33-.29.57-.89.65v14.9c0,.19-.43.46-.84.46h-.22V20H32v1.42c0,.19-.46.48-.87.48H31V5.48l1.92.24c-.07.33-.26.57-.86.65V19.23H49.12ZM36,6.25v3.89H40.1V6.25Zm0,9H40.1V10.86H36Zm5.18-9v3.89h4.06V6.25Zm4.06,9V10.86H41.15v4.41Z" fill="#444"/>
    <path d="M68.61,19.5c5.81-.89,8.86-3.77,8.86-8.21,0-4.2-3.29-6.91-7.3-6.91-.29,0-.55,0-.84,0a4.18,4.18,0,0,1,.84,2.35,12,12,0,0,1-.74,3.7c-1,2.81-3.8,7.59-6.05,7.59-1.49,0-3.12-2.38-3.12-5.28A9,9,0,0,1,63.33,6.2a10.2,10.2,0,0,1,6.89-2.57c4.7,0,8.47,3,8.47,8,0,3.76-2.23,7.92-10,8.52Zm-.07-15a9.14,9.14,0,0,0-4.66,2.33,7.94,7.94,0,0,0-2.59,5.71c0,2.47,1.15,4.2,2.11,4.2,1.7,0,3.94-4,5-6.5a11.56,11.56,0,0,0,.77-3.46A4.78,4.78,0,0,0,68.54,4.52Z" fill="#444"/>
    <path d="M109.27,9.75c-.17.17-.48.22-1,.24a29.06,29.06,0,0,1-5.64,5.11l-.31-.24a36.6,36.6,0,0,0,4.34-5h-8V20c0,1-.28,1.72-2.44,1.94a1.19,1.19,0,0,0-.63-.82A9.65,9.65,0,0,0,93,20.6v-.38s3.31.24,3.94.24.74-.15.74-.56V9.82H87.42l-.21-.69H100.1l0,0a14.06,14.06,0,0,0-6.22-4.41L94,4.28a19.68,19.68,0,0,1,4.13,1.56,46.7,46.7,0,0,0,5.35-3.36H90.11l-.21-.7H104l1-.89,1.59,1.52c-.19.16-.51.19-1.08.21A41.2,41.2,0,0,1,98.59,6.1c2.3,1.37,2.59,2.71,2.11,3h6.09l.92-.89Z" fill="#444"/>
    <path d="M136,8.17s1.18.93,1.92,1.61c-.07.26-.28.38-.62.38H116.37l-.22-.7h10.32V4.81h-5.54a16.66,16.66,0,0,1-2.59,3.72L118,8.29A23.11,23.11,0,0,0,121.29.37l1.92.55c-.07.29-.36.48-.84.48a21.58,21.58,0,0,1-1.08,2.69h5.18v-4l1.95.21c0,.34-.31.58-.89.67V4.09H133l1-1.28s1.16.92,1.9,1.61c-.05.27-.29.39-.62.39h-7.78V9.46h7.37Zm-2.76,4,1.64,1.24a2,2,0,0,1-1.06.48v7.47c0,.14-.55.45-.91.45h-.15v-1.6H121.26v1.29a1.08,1.08,0,0,1-.86.39h-.19V12.34l1.18.6h11.08Zm-.48,7.32V13.66H121.26V19.5Z" fill="#444"/>
    <path d="M162.31,7.09a4,4,0,0,1,1.51.67,2.44,2.44,0,0,1,1.05,1.58c0,.34,0,.44-.88.7a45.47,45.47,0,0,0-7.16,3c0,1.35,0,3.24,0,4,0,.48-.19.72-.53.72s-.6-.19-.6-.75.12-2,.12-3.4c-2.42,1.44-4.15,3-4.15,4.48s1.78,2,4.06,2c3.53,0,4.92-.74,6.14-.74.72,0,.89.29.89.53s-.05.5-.79.69a27.59,27.59,0,0,1-5.35.65c-4.35,0-5.81-1.27-5.81-3.07s2-3.7,5-5.54c-.12-2.12-.62-2.88-1.94-2.88s-3,1.2-4.08,2.28c-.84.81-1.49,1.82-1.92,1.82a.64.64,0,0,1-.65-.67c0-.6.91-1.25,2.07-2.45a22.94,22.94,0,0,0,3.45-4.49,14.9,14.9,0,0,1-1.68.12c-2,0-2.37-.24-3.45-2.14l.55-.33c1,1.13,1.27,1.58,3.09,1.58a12.73,12.73,0,0,0,2-.21A9.66,9.66,0,0,0,154.17,3c.12-.45,0-.57-.46-.74A5.18,5.18,0,0,0,152.39,2v-.5a6.32,6.32,0,0,1,1.2-.15c.63,0,2.07.46,2.07.94s-.22.48-.48,1.06c-.17.36-.48,1-.82,1.68a24.48,24.48,0,0,0,3.53-1.18c1.1-.48,1.25-.65,1.63-.65s.82.15.82.46-.24.43-.6.6a27.2,27.2,0,0,1-5.91,1.8,22.77,22.77,0,0,1-2.49,3.6c-.1.12,0,.24.14.17a6.48,6.48,0,0,1,2.66-.79c1.52,0,2.43,1.1,2.65,3,2-1.15,4.65-2.16,6.26-3,.38-.19.43-.4.1-.79A3.13,3.13,0,0,0,162,7.52Z" fill="#444"/>
    <path d="M176.3,16a10,10,0,0,1,4.89,3.38,2.71,2.71,0,0,1,.6,1.61c0,.6-.31.89-.74.89s-.67-.29-1-1A10.44,10.44,0,0,0,176,16.47Z" fill="#444"/>
    <path d="M199.19,16.83v4.71a1,1,0,0,1-.91.4h-.14V16.83h-5l-.19-.72h5.19V13.38h-2.57v.76c0,.12-.46.36-.89.36h-.19V5.67l1.2.6h2.45V3.82h-5L193,3.13h5.19v-3l1.84.2c0,.31-.26.52-.79.62V3.13h3L203.13,2s1.08.86,1.75,1.49c-.07.26-.29.38-.62.38h-5.07V6.27h2.43l.69-.79L204,6.73a1.83,1.83,0,0,1-1,.48v6.67a1.31,1.31,0,0,1-.91.46h-.14v-1h-2.67v2.73h2.91L203,15s1,.82,1.68,1.42c-.07.26-.29.38-.62.38ZM195.57,7V9.49h6.29V7Zm0,5.71h6.29v-2.5h-6.29ZM214.63,2.53a2,2,0,0,1-1.23.52V20c0,1-.17,1.66-2,1.87a1,1,0,0,0-.53-.79,5.66,5.66,0,0,0-2.06-.46v-.4s2.52.21,3,.21.62-.14.62-.57V12.94H206.8c-.36,3.39-1.51,6.63-4.92,9l-.36-.31c3.72-3.1,4.39-7.13,4.39-11.81V1.37l1.3.65h4.92l.65-.86Zm-2.24,9.72V7.69H207V9.75c0,.84,0,1.66-.08,2.5ZM207,2.74V7h5.44V2.74Z" fill="#444"/>
    <path d="M230.9,1.9a4.48,4.48,0,0,1,1.46-.26c.84,0,2.28.67,2.28,1.17s-.31.68-.41,1.3-.16,1-.24,1.66a33.51,33.51,0,0,0,4.13-.92,5.89,5.89,0,0,1,1.32-.45c.53,0,.94.26.94.57s-.31.49-.65.6A37.89,37.89,0,0,1,233.9,6.8c-.05.72-.08,1.61-.08,2.74v1a21.6,21.6,0,0,0,3.82-.79,9,9,0,0,1,1.49-.53c.34,0,.84.24.84.63s-.22.45-.6.6a28.35,28.35,0,0,1-5.5,1.08c.08,1.7.22,3.17.34,4.34a12.74,12.74,0,0,1,5.9,2.69,1.5,1.5,0,0,1,.6,1.06.44.44,0,0,1-.48.48c-.36,0-.62-.24-1-.6a11.31,11.31,0,0,0-4.95-2.6c0,.36.05.68.05,1,0,2.07-1.68,3.22-4.27,3.22-2.19,0-3.84-1.08-3.84-2.62,0-1.84,2.49-2.83,5.37-2.83a12.66,12.66,0,0,1,1.66.1c-.05-.94-.15-2.38-.19-4.11-1,.1-2,.15-3,.15-3.41,0-4.94-1.39-2.57-4l.58.31c-1.75,2.16-.58,2.74,2,2.74a25.74,25.74,0,0,0,3-.17V9.75c0-.91,0-1.92.05-2.85a35.23,35.23,0,0,1-3.94.28A5.23,5.23,0,0,1,224.39,5l.48-.38a5.18,5.18,0,0,0,4.27,1.65,29.1,29.1,0,0,0,4-.31c0-1.37.08-2.42.08-2.57,0-.48-.08-.57-.46-.69A8.13,8.13,0,0,0,231,2.48Zm2.37,14.79a12.21,12.21,0,0,0-2.09-.19c-2.52,0-4.1.91-4.1,1.92,0,.86.86,1.63,2.59,1.63C232.82,20.05,233.25,19,233.27,16.69Z" fill="#444"/>
    <path d="M251.25,5.55a2.07,2.07,0,0,0,1.49,1.2c1.17,0,6.26-1.58,10.1-2.45a27.1,27.1,0,0,1,5.31-.89,4.5,4.5,0,0,1,1.56.22c.48.22.57.41.57.62s-.21.44-.62.44-1.08-.08-2.07-.08a9.08,9.08,0,0,0-4.1.87c-1.18.67-3.72,3-3.72,8.09,0,2.54,1,3.69,2,4.34,1.65,1,3.84.89,4.92.89.48,0,1.2.26,1.2.72s-.44.55-1.52.55-3.84-.05-5.52-1.39c-1.44-1.13-2.11-2.47-2.11-5.06a10.11,10.11,0,0,1,3.31-8.09c.15-.12.12-.27-.16-.2a69.08,69.08,0,0,0-7.52,2.36,4.08,4.08,0,0,1-1.37.5,2.74,2.74,0,0,1-2.08-1.54,3.55,3.55,0,0,1-.2-.93Zm14.62,2.62a10.79,10.79,0,0,1,2.56,1.65c.6.58.87,1,.87,1.47s-.17.55-.46.55-.57-.65-1.1-1.27a11.94,11.94,0,0,0-2.23-2ZM268,6.56a10.62,10.62,0,0,1,2.57,1.49c.65.55.91,1,.91,1.49s-.16.52-.45.52-.6-.62-1.13-1.22A11.28,11.28,0,0,0,267.62,7Z" fill="#444"/>
  </g>
</svg>
