<svg xmlns="http://www.w3.org/2000/svg" viewBox="0 0 380 32"><path fill="#222" d="M377.201 15.078c-.416 0-.672-.16-1.024-.768-.576-.992-1.856-2.368-2.944-3.008-.128-.064-.224-.192-.224-.32 0-.16.128-.32.32-.32.16 0 .416.064.704.128.864.224 1.664.608 2.56 1.248.768.544 1.472 1.28 1.472 2.016 0 .64-.384 1.024-.864 1.024zm-8.512-6.303c-1.92.608-3.327 1.6-4.607 2.975-1.632 1.76-2.528 4-2.528 6.208.032 2.08.864 3.744 2.208 4.8 1.759 1.376 4.287 1.887 5.855 1.951.832.032 1.408.096 2.208.544.672.384.864.832.864 1.376 0 .544-.352.928-1.696.928-2.304 0-5.407-.896-7.487-2.368-1.92-1.375-3.424-3.519-3.424-6.335 0-2.048.448-3.84 1.44-5.472.896-1.664 2.528-3.295 4.447-4.575l-.032-.128a287.23 287.23 0 0 0-9.599 3.167c-.448.16-.96.384-1.376.736-.224.192-.448.32-.864.32-.544.032-1.312-.384-2.144-1.344-.511-.608-.927-1.215-.959-1.791 0-.448.128-.8.288-.8.16 0 .287.128.415.256.928.928 1.408 1.12 2.4 1.12a11.383 11.383 0 0 0 1.92-.352c4.64-1.184 9.44-2.432 14.143-3.648.672-.16.992-.32 1.248-.48.32-.192.608-.288 1.088-.32.64 0 1.408.224 2.08.544.448.192.864.512.864.992.032.672-.32.96-1.12.992-2.08.064-3.936.16-5.632.704zm-33.76 17.182c.608.416 1.056.832 1.056 1.568 0 .8-.576 1.216-.992 1.216-.384 0-.736-.096-1.12-.416-1.952-1.664-4.352-3.04-6.112-3.68v.288c0 1.312-.416 2.24-1.248 2.912-.8.672-1.952 1.024-3.839 1.024-2.688 0-5.344-1.056-5.344-3.36 0-2.431 2.88-3.295 5.184-3.295.96 0 2.495.096 3.263.224-.032-1.824-.032-3.744-.064-5.344-.736.064-1.951.096-2.815.096-3.008 0-4.192-.832-4.192-2.208 0-.736.224-1.28.544-1.728.16-.224.32-.352.48-.352.128 0 .288.096.288.224 0 .096-.064.288-.128.416-.096.16-.16.512-.16.864 0 .8.608 1.184 2.56 1.184 1.024 0 2.367-.064 3.391-.16 0-1.728-.032-3.168-.064-4.895a47.356 47.356 0 0 1-6.047.415c-1.824 0-3.328-.447-4.448-2.175a.775.775 0 0 1-.128-.416c0-.096.128-.224.256-.224.096 0 .256.032.384.16.896.736 2.176 1.088 3.712 1.088 1.6 0 3.968-.256 6.207-.576 0-1.12 0-2.72-.032-3.712-.032-.768-.064-1.088-.32-1.344-.224-.224-.576-.352-.864-.384-.255-.032-.575-.032-.799-.032-.128 0-.224-.096-.224-.256 0-.192.16-.32.448-.512.32-.192.703-.352 1.183-.352.672 0 1.536.32 2.144.704.96.544 1.28 1.12 1.28 1.472 0 .384-.192.608-.384.768-.288.256-.48.576-.512 1.088-.096 1.024-.128 1.664-.128 2.272a33.36 33.36 0 0 0 3.488-.736c.64-.16 1.024-.32 1.536-.608.384-.224.768-.352 1.44-.352.8 0 1.984.352 1.984 1.088 0 .576-.352.832-1.76 1.152-1.984.448-4.288.928-6.688 1.216-.032 1.663-.032 3.167-.032 4.895 1.12-.192 2.144-.384 2.848-.64.448-.16.768-.384 1.024-.576.32-.224.768-.384 1.376-.384.96 0 1.504.32 1.504.832 0 .48-.352.8-1.088 1.088-1.6.608-3.68 1.12-5.632 1.376.032 1.824.16 4.16.256 5.92 2.72.672 5.632 2.015 7.328 3.167zm-13.119-2.431c-1.504 0-3.36.48-3.36 1.855 0 1.376 1.888 1.856 3.744 1.856 1.44 0 2.303-.256 2.879-.8.512-.512.704-1.152.704-2.335-1.216-.32-2.591-.576-3.967-.576zm-22.082-13.279c0 14.142.096 15.486.128 17.022 0 1.248-.32 1.824-1.216 2.304-.448.288-1.248.48-1.76.48-.48 0-.512-.16-.64-.672-.192-.896-.96-1.312-3.103-1.792-.16-.032-.16-.384 0-.384 1.76.128 2.911.192 3.807.192.416 0 .544-.16.544-.576v-7.967h-6.719c-.224 1.44-.48 2.656-.8 3.744-.992 3.135-2.592 5.279-5.408 7.679-.16.16-.576-.192-.416-.352 2.08-2.432 3.328-4.8 3.968-7.807.608-2.848.864-6.432.864-12.415 0-4.736-.032-6.176-.16-7.936 1.152.544 1.664.8 2.72 1.44h5.631c.96-1.056 1.152-1.184 1.344-1.184.192 0 .416.096 1.44.928.512.416.608.64.608.832 0 .256-.128.384-.832.896v5.568zm-2.24-6.24h-6.207v3.488c0 1.056 0 2.048-.032 3.008h6.239V4.007zm0 7.295h-6.239c-.032 2.24-.128 4.512-.384 6.752h6.623v-6.752zm-16.67-5.183v3.744h2.527c.864-.928 1.056-1.056 1.248-1.056.224 0 .416.096 1.312.832.448.352.576.608.576.8 0 .223-.16.383-.768.831v1.952c0 3.744.064 5.536.064 6.08 0 .64-.448.928-1.344.928-.608 0-.896-.224-.896-.736v-.448h-2.719v4.192h2.495c1.056-1.28 1.28-1.44 1.472-1.44.224 0 .448.16 1.664 1.088.48.416.64.608.64.8 0 .256-.096.352-.416.352h-5.855c0 2.495.096 4.735.096 5.439 0 .736-.416.992-1.44.992-.768 0-.992-.256-.992-.832 0-.448.128-2.016.128-4.832v-.767h-4.416c-.672 0-1.216.032-2.016.192l-.32-1.216c.896.16 1.504.224 2.336.224h4.416v-4.192h-2.656v.224c0 .672-.448.96-1.312.96-.672 0-.928-.256-.928-.864 0-.768.096-2.048.096-6.304 0-2.048 0-3.103-.096-4.415 1.024.416 1.472.64 2.432 1.216h2.432V6.119h-4.128c-.608 0-1.12.064-1.888.192l-.352-1.216c.896.192 1.472.224 2.24.224h4.128v-1.28c0-1.28-.032-2.144-.128-3.232 3.04.32 3.359.576 3.359.896 0 .256-.224.48-.991.768v2.848h3.103c1.056-1.376 1.28-1.536 1.472-1.536.224 0 .448.16 1.728 1.216.512.416.672.608.672.8 0 .224-.128.32-.416.32h-6.559zm-4.864 12.127h7.583v-3.488h-7.583v3.488zm0-7.584v3.296h7.583v-3.296h-7.583zm-22.368 19.359c-.864 0-1.216-.608-1.568-1.376-1.024-2.624-2.464-4.319-4.736-5.695-.128-.096-.16-.224-.16-.384 0-.192.128-.32.352-.32 2.208.384 4.256 1.248 5.696 2.431 1.504 1.248 2.08 2.4 2.08 3.584 0 .992-.672 1.76-1.664 1.76zm-22.274-15.583a73.804 73.804 0 0 0-5.375 2.56c-.928.48-1.984 1.12-2.88 1.6v4.48c0 .896-.352 1.343-.992 1.343s-1.088-.351-1.088-1.151c0-.768.064-2.112.128-3.68-2.816 1.6-4.48 2.848-4.48 4.831 0 1.312 1.152 2.336 4.128 2.336 1.888 0 3.2-.064 4.48-.224.8-.128 1.408-.256 1.888-.384.415-.096.767-.192 1.087-.192 1.12 0 2.208.64 2.208 1.408 0 .512-.352.832-1.6 1.024-.992.192-3.455.32-6.047.32-4.352 0-7.296-1.056-7.296-4.096 0-2.783 2.208-4.607 5.632-6.655v-1.536c0-1.824-.448-2.592-1.6-2.592-1.312 0-2.656.96-3.936 2.24-1.024 1.056-1.76 2.112-2.527 3.2-.256.352-.672.768-1.088.768-.608 0-1.056-.384-1.056-1.28 0-.48.352-.928.992-1.568.928-.96 2.143-2.336 3.103-3.68.864-1.184 1.632-2.496 2.368-3.775-.864.128-1.76.192-2.752.192-1.599 0-2.879-.544-3.711-2.048a.775.775 0 0 1-.128-.416c0-.192.128-.288.256-.288.096 0 .256.096.384.256.768.832 1.92 1.056 3.167 1.056.928 0 2.208-.192 3.616-.512.416-.832.832-1.952 1.056-2.72.096-.352.16-.64.16-.832 0-.416-.224-.608-.64-.736-.416-.128-.832-.192-1.312-.256-.16-.032-.256-.096-.256-.192s.128-.256.256-.352c.448-.32.8-.416 1.248-.416.704 0 1.664.32 2.4.736.768.448 1.056.864 1.056 1.248 0 .416-.192.608-.352.736-.256.192-.576.48-.8.864-.192.32-.544.96-.8 1.472 1.184-.352 2.112-.736 2.784-1.12.512-.288 1.024-.544 1.632-.544.704 0 1.216.384 1.216.96s-.448.768-1.056.992c-1.728.608-3.328 1.056-5.6 1.6-.992 1.663-1.984 3.359-3.072 4.895 1.28-.928 2.72-1.536 3.84-1.536 1.696 0 2.784 1.024 2.944 2.72.064.384.064.96.096 1.504 2.56-1.472 4.32-2.528 6.399-4 .32-.224.48-.48.48-.672 0-.16-.128-.288-.384-.448-.256-.16-.64-.256-.96-.352-.192-.064-.32-.128-.32-.224 0-.128.224-.32.48-.416.224-.096.48-.128.8-.128.608 0 1.6.32 2.432.8.96.512 1.472 1.056 1.472 1.696 0 .544-.416.8-.832.832-.256.032-.64.096-1.248.352zm-60.222.608c-.8 0-1.408.064-2.304.192l-.32-1.216c1.056.192 1.728.224 2.624.224h10.271V8.103h-5.984c-1.248 1.792-2.751 3.327-4.735 4.607-.192.128-.512-.192-.352-.352 1.728-1.76 3.199-4.319 4.127-6.719.512-1.216.864-2.4 1.024-3.36 2.784.832 3.36 1.12 3.36 1.504 0 .32-.352.512-1.312.672-.48.992-.992 1.952-1.568 2.848h5.44v-2.08c0-1.856-.032-2.72-.16-4.032 3.264.352 3.68.64 3.68.992 0 .288-.224.512-1.152.864v4.256h6.079c1.472-1.696 1.728-1.856 1.92-1.856.192 0 .448.16 1.952 1.344.704.576.864.832.864 1.024 0 .192-.128.288-.448.288h-10.367v6.143h8.191c1.6-1.856 1.856-1.984 2.048-1.984.192 0 .448.128 2.016 1.44.768.64.896.832.896 1.056 0 .192-.096.288-.416.288H171.09zm-17.474-.384c-.256.032-.352.064-.64.32-1.92 1.568-4.192 2.976-6.528 4.064-.16.096-.416-.224-.256-.352 2.08-1.696 3.488-3.2 4.8-5.024h-9.055v6.976c0 3.648.128 5.183.128 6.591 0 .896-.32 1.344-.832 1.888-.512.576-1.472.864-2.336.864-.512 0-.64-.064-.768-.672-.192-.96-1.056-1.408-4.064-1.952-.224-.032-.224-.544 0-.512 2.336.224 3.808.288 4.96.288.416 0 .576-.128.576-.608V13.67h-10.079c-.896 0-1.472.032-2.368.224l-.32-1.216c1.056.128 1.728.192 2.688.192h21.406c1.12-1.056 1.376-1.248 1.6-1.248.256 0 .608.288 1.856 1.536.416.448.576.64.576.896 0 .416-.16.544-1.344.608zm-11.231-5.119c.512.576.768 1.151.768 1.727 0 .768-.512 1.408-1.216 1.408-.64 0-.832-.16-1.536-1.6-.832-1.695-2.08-3.103-4.096-4.543-.096-.064.064-.32.192-.288 2.368.768 4.224 1.728 5.376 2.752 2.208-1.632 4.223-3.552 5.439-5.184h-14.399c-.928 0-1.535.064-2.431.224l-.32-1.216c1.183.16 1.823.192 2.719.192h14.495c1.12-1.056 1.28-1.152 1.504-1.152.224 0 .416.096 1.696 1.312.608.544.736.704.736.928 0 .32-.288.544-1.568.704a30.949 30.949 0 0 1-7.359 4.736zM97.937 26.757c-.224 0-.448-.192-.448-.384 0-.256.16-.352.576-.448 3.328-.64 6.72-2.111 8.703-4.063 1.728-1.76 2.88-3.808 2.88-6.624 0-1.856-.704-4.512-2.688-6.111-1.503-1.184-3.391-2.08-5.951-2.08-.672 0-1.152 0-1.696.064.672.736 1.024 1.632 1.024 2.496 0 1.023-.416 2.623-.832 3.743-1.152 3.04-2.784 6.016-4.576 8.288-.896 1.152-1.888 2.08-3.231 2.08-.928 0-1.728-.416-2.4-1.28-.896-1.12-1.472-2.496-1.472-4.736 0-2.464 1.024-5.376 3.008-7.551 2.079-2.272 5.567-4.192 10.239-4.192 3.296 0 5.855 1.184 7.423 2.464 2.496 2.016 3.552 4.639 3.552 7.263 0 3.616-1.376 5.664-3.456 7.488-2.368 2.047-6.751 3.391-10.655 3.583zm.512-19.55a11.292 11.292 0 0 0-6.176 3.168c-1.791 1.791-2.783 4.415-2.783 6.911 0 1.376.256 2.176.704 2.976.352.64.864 1.088 1.504 1.088.671 0 1.311-.576 2.239-1.824 1.888-2.496 3.648-5.728 4.576-8.32a6.995 6.995 0 0 0 .448-2.527c0-.768-.256-1.216-.512-1.472zM59.696 3.943v5.344h4.192c.928-1.088 1.088-1.184 1.28-1.184.256 0 .448.096 1.44.992.48.416.608.576.608.8 0 .256-.16.448-.896.927v3.392c0 5.888.16 8.96.16 9.888 0 .735-.416 1.023-1.408 1.023-.672 0-.896-.224-.896-.863v-1.088H53.393v1.12c0 .703-.384 1.023-1.344 1.023-.64 0-.928-.288-.928-.8 0-1.151.128-3.103.128-10.303 0-3.36-.032-4.415-.16-6.207 1.12.48 1.6.672 2.592 1.28h3.872V3.943H47.377c-.992 0-1.76.064-2.752.192l-.319-1.184c1.119.16 2.047.192 3.103.192H68.56c1.632-1.888 1.856-2.016 2.048-2.016.224 0 .448.128 2.111 1.504.768.608.928.832.928 1.024 0 .192-.096.288-.416.288H59.696zm0 18.431h4.48v-6.048h-4.48v6.048zm0-6.848h4.48v-5.439h-4.48v5.439zm-2.143-5.439h-4.16v5.439h4.16v-5.439zm0 6.239h-4.16v6.048h4.16v-6.048zM25.392 12.71c3.68 2.528 5.311 5.12 5.311 8.896 0 1.568-.383 2.656-1.055 3.391-.64.768-1.632 1.152-2.72 1.152-.384 0-.512-.096-.608-.672-.128-.8-.768-1.247-3.008-1.727-.192-.032-.16-.416.032-.416a61.86 61.86 0 0 0 3.552.128c.544 0 .896-.16 1.12-.48.32-.384.448-1.12.448-2.368 0-2.944-1.184-5.568-3.808-7.776 1.248-2.911 2.016-5.215 2.944-8.767h-5.504v17.183c0 4.863.096 7.007.096 8.159 0 .736-.48 1.056-1.408 1.056-.736 0-.992-.32-.992-.864 0-2.08.096-8.991.096-19.326 0-5.888-.032-6.912-.16-8.416 1.184.512 1.664.768 2.72 1.408h5.088c.928-1.12 1.12-1.28 1.344-1.28.224 0 .416.128 1.472 1.184.575.608.703.8.703 1.024 0 .32-.288.48-1.023.672-1.888 3.616-2.88 5.28-4.64 7.839zm-8.703 3.616c.223 0 .447.16 1.759 1.28.544.512.704.736.704.928 0 .192-.128.288-.448.288h-7.103c-.32 2.176-.768 3.584-1.504 5.024-1.28 2.559-3.232 4.543-6.336 6.015-.192.096-.416-.288-.256-.416 2.784-2.24 4.224-4.288 5.056-7.231.288-.96.512-2.048.704-3.392H5.553c-.768 0-1.344.064-2.272.192l-.319-1.216c1.023.192 1.695.224 2.591.224h3.808c.192-1.728.256-3.488.288-5.216H6.417c-.672 0-1.184.032-2.016.192l-.352-1.216c.992.16 1.568.224 2.368.224h3.232V7.335H6.033c-.736 0-1.28.032-2.208.192l-.352-1.216c1.024.16 1.696.224 2.56.224h3.616c-.032-3.168-.064-4.288-.192-5.28 3.36.416 3.584.544 3.584.96 0 .256-.16.48-1.024.832-.032.96-.032 2.016-.032 3.488h2.848c1.152-1.408 1.408-1.568 1.6-1.568.192 0 .415.16 1.663 1.216.48.448.64.64.64.832 0 .192-.096.32-.416.32h-6.335v4.671h2.464c1.056-1.376 1.312-1.535 1.504-1.535.192 0 .416.159 1.631 1.151.48.416.608.672.608.864 0 .224-.096.32-.416.32h-5.823c-.032 1.728-.096 3.488-.256 5.216h3.36c1.216-1.536 1.44-1.696 1.632-1.696zm32.224-7.135c0 .256-.192.48-1.056.832v17.63h22.047V13.894c0-2.592-.032-4.319-.16-5.695 2.943.32 3.551.544 3.551.928 0 .288-.128.512-1.088.896v5.311c0 8.704.128 12.703.128 13.919 0 .736-.415 1.088-1.471 1.088-.704 0-.96-.288-.96-.928v-.96H47.857v.8c0 .736-.448 1.088-1.44 1.088-.736 0-1.056-.288-1.056-.896 0-.864.192-4.128.192-13.983 0-4.352-.032-5.535-.192-7.199 3.104.32 3.552.48 3.552.928zM175.409 19.27h13.823c1.088-1.184 1.248-1.312 1.44-1.312.224 0 .416.128 1.568 1.088.544.48.672.672.672.864 0 .288-.16.448-.992.992v1.952c0 3.775.128 5.599.128 6.143 0 .704-.512 1.056-1.504 1.056-.704 0-.992-.224-.992-.864v-1.088h-14.431v1.024c0 .704-.48 1.088-1.504 1.088-.672 0-.991-.32-.991-.896 0-.768.128-2.08.128-6.399 0-2.272-.032-3.52-.16-5.088 1.247.544 1.727.768 2.815 1.44zm-.288 8.031h14.431V20.07h-14.431v7.231zm195.264-14.143c0-.16.128-.32.352-.32.192 0 .416.064.512.096.864.256 1.824.736 2.784 1.6.768.672 1.216 1.248 1.216 1.92 0 .512-.32.96-.896.96-.416 0-.768-.288-1.056-.864-.48-.96-1.76-2.368-2.688-3.072-.128-.096-.224-.224-.224-.32z" /></svg>
